<?xml version="1.0" encoding="utf-8"?>
<!-- Generator: Adobe Illustrator 23.0.3, SVG Export Plug-In . SVG Version: 6.00 Build 0)  -->
<!DOCTYPE svg PUBLIC "-//W3C//DTD SVG 1.1//EN" "http://www.w3.org/Graphics/SVG/1.1/DTD/svg11.dtd" [
        <!ENTITY ns_extend "http://ns.adobe.com/Extensibility/1.0/">
        <!ENTITY ns_ai "http://ns.adobe.com/AdobeIllustrator/10.0/">
        <!ENTITY ns_graphs "http://ns.adobe.com/Graphs/1.0/">
        <!ENTITY ns_vars "http://ns.adobe.com/Variables/1.0/">
        <!ENTITY ns_imrep "http://ns.adobe.com/ImageReplacement/1.0/">
        <!ENTITY ns_sfw "http://ns.adobe.com/SaveForWeb/1.0/">
        <!ENTITY ns_custom "http://ns.adobe.com/GenericCustomNamespace/1.0/">
        <!ENTITY ns_adobe_xpath "http://ns.adobe.com/XPath/1.0/">
        ]>
<svg version="1.1" id="Layer_1"
     xmlns="http://www.w3.org/2000/svg" x="0px" y="0px" width="595.3px"
     height="251.9px"
     viewBox="0 0 595.3 251.9" style="enable-background:new 0 0 595.3 251.9;" xml:space="preserve">
<style type="text/css">
	.st0{fill:#FFFFFF;}
</style>
    <metadata>
	<sfw xmlns="&ns_sfw;">
		<slices></slices>
        <sliceSourceBounds bottomLeftOrigin="true" height="205" width="499.4" x="33.9" y="606.6"></sliceSourceBounds>
	</sfw>
</metadata>
    <path class="st0" d="M33.9,111.3c0-10.4,6.5-19.9,16.3-23c6.8-2.2,14.7-0.1,21,2.4c4.8,1.6,48.8,24.5,56.3,28c3.5,1.6,5.5,2,9.1,1.3
	c3.9-0.8,8.7-3.2,12.3-4.9c6.8-3.3,14.6-7,20.9-10.8c4-2.4,3.9-9.2,0.3-11.8c-6.3-4.6-25.7-13.3-33.3-16.9c-4.3-2-9.3-4.2-13.2-6.7
	c-1.2-0.8-2.7-2.4-1.9-3.9c2-3.7,6.9-5.7,11-5.8c1.4,0,7.3,0.4,8.4,1.3c0.1,0,0.1,0.1,0.2,0.1c2.2,0.5,17.5,8.1,20.5,9.8
	c2.9,1.7,6.5,2.9,9.5,4.6c6.5,3.6,17.5,7.9,22.9,12.4c3.4,2.8,6.2,7,6.4,12.1c0.8,18.8-0.1,39.2,0,58.2c0,6.7-1.3,13.1-7.4,16.9
	c-7.9,4.9-15.5,8.9-24,12.8c-6.4,3-12.8,6.6-19.2,9.6c-5.5,2.5-7.7,3.6-13.3,5.4c-1.6,0.5-3.2,0.5-4.8,0
	c-10.8-4.3-22.3-9.4-32.5-14.8c-5.4-3-23.7-10.9-27.1-14.2c-2.4-2.2-4.6-5.5-4.8-8.9c-0.2-6.1,0.1-16.9,0.1-24.2c0-1.6,0-3,0-4.1
	c0.3-3.6,4.6-6.1,7.4-7.4c2.2-1,5.4-0.6,8.2,0.7c2.8,1.2,6.9,3.4,9.5,4.9c11.7,6.2,25.6,12.4,39,18.1c2.1,0.8,4,0.5,5.1-0.2
	c4-1.5,13.4-5.6,19.6-8.7c2.8-1.7,9.5-3.8,10.6,1.1c1,4.2-0.3,7-2,9.9c-1.9,3.9-16.7,10.4-21.9,12.6c-6.9,2.9-11.2,3.3-17.9,0.1
	c-12-5.6-23.9-11.4-35.7-17.4c-1-0.5-1.4-0.8-2.5-1c-1-0.1-1.5,0.2-1.9,1.1c-0.2,0.4,0,9.4,0.2,10.6c0.1,0.7,0.3,1.3,0.8,1.8
	c2.2,2.1,3.2,2.6,6,4c12.6,6.5,24.4,12.4,37.5,18c2.7,1.1,7.6,0.7,10.2-0.4c12.2-5.4,27.4-12.5,38.6-19.6c2.9-1.9,4.9-6.3,4.9-10.4
	c0-8,0.2-16.2,0.2-24.3c-0.5-6.8-6.1-10.6-11.2-8.7c-9.1,4-18.5,8.7-27.7,12.8c-7.1,3.6-13.5,3.8-21.3-0.2
	c-3.6-1.9-8.6-4.3-11.3-5.6c-11.1-5-41-23.5-51.7-21.3c-5.9,1.2-8.1,8.1-8.2,13.4c-0.4,8.1,0.1,34,0.2,44c-0.1,9,3.9,15.4,10.4,19.5
	c9.2,5.8,19.6,9.9,29.3,15c10.1,5.2,21.5,11,32.2,15.6c7.1,3,9.6,5,17.6,1.3c5.2-2.2,18.5-9.3,25.1-12.3c6.9-3.1,15.2-7.4,21.9-10.9
	c7.9-4.1,17.8-8,23.1-15.3c5.1-7,4.6-15.9,4.6-24.1c0-16.7,0-33.3,0-50c0-12.1-0.4-19.4-11.2-26.1c-5.8-3.6-12.6-6.4-18.7-9.6
	c-7.2-3.8-19.4-10.3-30.7-15c-4.8-2-9.5-3.7-13.5-4.7c-7.2-1.8-12.2-2.1-18-0.1c-2.3,0.2-20.2,8.8-23.3,10.4
	c-5.2,2.7-7.4,8.6-2.8,13c4.2,4,34.7,17.9,37.6,19.3c2.4,1.1,4.8,2.2,7.1,3.5c1.4,0.8,2.6,1.9,3.4,3.4c0.7,1.3-0.8,3.2-1.9,3.9
	c-2.5,1.7-5.7,2.9-8.8,3.2c-3,0.4-7-0.5-10.5-2c-12.7-6.7-27.8-12.6-41.1-20c-8.8-4.8-19.3-7.9-29.4-6.9c-4.5,0.1-13.1,2.4-16.4,5.3
	c-1.9,1.7-5.4,0.6-3.9-1.8c1.8-4.4,8.4-9.3,13.9-12.5c4.4-2.6,9.1-4.5,13.6-6.8C72.3,54.3,83.8,49.4,94,43.8
	c5.3-2.9,13.1-6.6,18.8-9.2c7.7-3.5,16-4.4,24.4-4.4c5.6,0.1,13.2,2.3,18.6,4.6c22.9,10.2,46.5,22.2,68.7,33.9
	c7.6,4,9.8,11.6,9.8,19.5c0,25.3,0,50.7,0,76c0,8.5-2.8,19.6-9.4,25.2c-5.1,4.3-7.4,6.1-13.4,9.5c-8.4,4.8-17.9,9.5-27.1,13.9
	c-7,3.4-13.9,6.8-20.8,10.3c-5.6,2.9-12.1,6.4-17.8,8.9c-14.3,6.3-17.6,2.7-32-4.4c-18.9-9.4-38.7-18.4-57.3-28.2
	c-6.8-3.6-13.5-8-17.9-14.4c-2.8-3.1-4.6-12.4-4.6-16.3c0-7.3,0-14.7,0-22C33.9,135,33.9,123.2,33.9,111.3"/>
    <path class="st0" d="M462.6,140.6c0,7,0,14,0,21c0,3.3-0.3,6.7-1.1,9.9c-0.7,3.1-1.8,6-3.8,8.5c-2.1,2.8-4.9,4.8-8.2,6.1
	c-2.3,0.9-4.6,1.4-7.1,1.7c-2.5,0.3-5,0.3-7.5,0.1c-2.6-0.2-5.1-0.8-7.6-1.8c-1.3-0.5-2.5-1-3.7-1.5c-0.2-0.1-0.3-0.2-0.5-0.2
	c-0.4-0.2-0.6-0.5-0.6-0.9c0-0.4,0-0.7,0-1.1c0-1.1,0-2.3,0-3.4c0-0.2,0-0.4,0.1-0.6c0-0.1,0.2-0.2,0.3-0.2c0.3,0.1,0.5,0.2,0.8,0.3
	c2.6,1.2,5.3,2.2,8.1,2.9c2.1,0.5,4.2,0.8,6.4,0.8c2.5-0.1,5-0.4,7.5-1.2c4.1-1.4,7-4.1,8.7-8.1c0.9-2.1,1.4-4.3,1.6-6.6
	c0.2-1.8,0.2-3.6,0.2-5.4c0-0.2,0-0.4,0-0.5c0-0.1-0.2-0.2-0.3-0.1c-0.1,0.1-0.3,0.2-0.4,0.4c-1.2,1.5-2.7,2.7-4.4,3.7
	c-2.4,1.4-4.9,2.2-7.6,2.6c-1.8,0.2-3.5,0.3-5.3,0.1c-3.8-0.3-7.2-1.5-10.2-3.8c-2.3-1.8-4-3.9-5.4-6.4c-1.6-3-2.5-6.3-2.9-9.6
	c-0.3-2.7-0.3-5.4-0.2-8.1c0.3-4.8,1.6-9.3,4.2-13.3c2.2-3.5,5.1-6.3,8.9-8c1.8-0.8,3.6-1.4,5.5-1.7c2.8-0.4,5.7-0.4,8.5,0.2
	c3,0.6,5.6,1.9,7.9,4c0.5,0.4,0.9,0.9,1.3,1.4c0,0,0.1,0.1,0.2,0.1c0.1,0,0.2-0.1,0.2-0.2c0-0.9,0-1.8,0-2.7c0-0.4,0-0.8,0-1.2
	c0-0.4,0.2-0.6,0.6-0.6c1.7,0,3.4,0,5.2,0c0.3,0,0.5,0.2,0.5,0.5c0,0.4,0,0.8,0,1.2C462.6,125.9,462.6,133.3,462.6,140.6
	 M456.3,140.7C456.3,140.7,456.3,140.7,456.3,140.7c0-1.7,0-3.4,0-5.1c0-2.7-0.7-5.1-2.1-7.4c-1-1.6-2.2-3-3.7-4.1
	c-2.4-1.8-5.2-2.5-8.2-2.6c-0.2,0-0.4,0-0.6,0.1c-0.3,0-0.6,0.1-0.9,0.1c-2.7,0.2-5.2,1-7.3,2.7c-2.5,1.8-4.2,4.2-5.4,7
	c-1.2,2.8-1.7,5.8-1.9,8.8c-0.2,2.8,0,5.6,0.6,8.4c0.8,3.6,2.2,6.8,5,9.3c1.7,1.6,3.7,2.6,6,3c2.3,0.4,4.6,0.4,6.8-0.1
	c2-0.4,3.9-1.2,5.6-2.4c3.1-2.3,5-5.4,5.8-9.1c0.3-1.3,0.5-2.7,0.4-4.1C456.3,143.7,456.3,142.2,456.3,140.7z"/>
    <path class="st0" d="M319.8,142.6c-5.2,0-10.5,0-15.7,0c-0.4,0-0.7,0-1.1,0c-0.4,0-0.5,0.2-0.5,0.5c0,0.1,0,0.2,0,0.3
	c0.2,3.6,0.8,7.1,2.6,10.3c1.3,2.3,3,4.2,5.3,5.5c2,1.1,4.1,1.7,6.3,1.9c0.4,0,0.8,0,1.2,0c3.1,0.1,6.1-0.6,9-1.7
	c2.3-0.9,4.5-2.1,6.7-3.4c0.2-0.1,0.4-0.3,0.6-0.4c0.3-0.2,0.5-0.1,0.6,0.3c0,0.1,0,0.3,0,0.4c0,1.4,0,2.7,0,4.1
	c0,0.6-0.2,1-0.8,1.4c-2,1.4-4.2,2.5-6.4,3.3c-2.6,1-5.2,1.5-7.9,1.7c-3.8,0.3-7.4-0.1-11-1.6c-1.8-0.8-3.3-1.8-4.8-3.1
	c-3.3-2.9-5.4-6.5-6.6-10.7c-0.8-3-1.3-6-1.3-9.1c0-1.1,0-2.2,0-3.3c0.1-3.8,1-7.4,2.6-10.8c1.3-2.8,3.1-5.3,5.3-7.4
	c3-2.9,6.6-4.6,10.8-5.2c1.7-0.2,3.4-0.3,5.2-0.2c4.4,0.3,8.2,1.8,11.3,5c1.8,1.9,3.1,4,4,6.4c1,2.6,1.6,5.2,1.9,8
	c0.3,2.1,0.2,4.3,0.2,6.4c0,0.1,0,0.3,0,0.4c-0.1,0.3-0.2,0.5-0.6,0.5c-0.3,0-0.7,0-1.1,0C330.4,142.6,325.1,142.6,319.8,142.6
	 M316.7,136.7c4.2,0,8.4,0,12.5,0c0.4,0,0.7,0,1.1,0c0.4,0,0.6-0.2,0.5-0.6c-0.1-0.8-0.2-1.7-0.3-2.5c-0.4-2.7-1.4-5.2-3.1-7.4
	c-1.1-1.5-2.6-2.7-4.3-3.5c-2.5-1.1-5.1-1.2-7.7-0.8c-4.2,0.6-7.4,3-9.7,6.5c-1.4,2.1-2.3,4.4-2.7,6.9c-0.3,1.5-0.3,1.5,1.2,1.5
	C308.3,136.7,312.5,136.7,316.7,136.7z"/>
    <path class="st0" d="M381.4,148.4c0,5.3,0,10.6,0,15.8c0,0.3,0,0.6,0,0.9c0,0.7-0.2,0.9-0.9,0.9c-1.5,0-3,0-4.4,0
	c-0.1,0-0.3,0-0.4-0.1c-0.2-0.1-0.4-0.2-0.4-0.4c0-0.3-0.1-0.6-0.1-0.9c0-1.5,0-3,0-4.4c0-0.2,0-0.3-0.1-0.5c0,0-0.1-0.1-0.2,0
	c-0.2,0.1-0.3,0.3-0.4,0.4c-2.1,2.6-4.7,4.5-7.8,5.8c-1.9,0.8-3.9,1.2-6,1.3c-2.1,0.1-4.2-0.1-6.2-0.6c-5.1-1.5-8.4-4.8-9.8-9.9
	c-0.2-0.8-0.4-1.7-0.4-2.6c0-1.4-0.1-2.8,0.2-4.2c0.8-4,2.9-7.1,6.4-9.3c1.9-1.2,3.9-2,6-2.6c2.1-0.6,4.2-0.9,6.3-1.3
	c3.6-0.5,7.2-1.1,10.8-1.6c1.1-0.2,1-0.2,1-1.3c-0.1-1.4-0.2-2.8-0.5-4.2c-0.4-1.6-0.9-3-1.9-4.3c-1.1-1.5-2.5-2.5-4.3-3.1
	c-1.6-0.5-3.2-0.6-4.8-0.5c-2.5,0.1-4.8,0.8-7.1,1.7c-2.1,0.8-4,2-5.9,3.2c-0.5,0.3-0.9,0.6-1.4,0.9c-0.3,0.2-0.5,0-0.5-0.3
	c0-0.2,0-0.4,0-0.5c0-1.5,0-3,0-4.5c0-0.7,0.3-1.2,0.8-1.6c2-1.4,4.2-2.4,6.5-3.2c2.2-0.8,4.5-1.4,6.9-1.6c2.9-0.2,5.8-0.2,8.5,0.8
	c3.8,1.4,6.5,3.9,8.2,7.6c0.9,1.9,1.4,3.9,1.6,6c0.2,1.2,0.2,2.3,0.2,3.5C381.4,138.6,381.4,143.5,381.4,148.4
	C381.4,148.4,381.4,148.4,381.4,148.4 M360.1,161.2c0.4,0,0.7,0,0.9,0c2.9,0,5.5-0.9,7.7-2.7c3.1-2.3,4.9-5.4,5.8-9.2
	c0.4-1.7,0.5-3.3,0.6-5c0.1-0.9,0-1.9,0-2.8c0-0.7-0.2-0.8-0.9-0.7c-0.1,0-0.3,0.1-0.4,0.1c-2.4,0.4-4.9,0.8-7.3,1.1
	c-2.1,0.3-4.2,0.7-6.3,1.1c-1.9,0.4-3.8,0.9-5.6,1.9c-1.9,1-2.9,2.5-3.5,4.6c-0.3,1.3-0.3,2.6-0.3,3.9c0,3.2,2.2,6.4,5.8,7.4
	C357.9,161.1,359.1,161.2,360.1,161.2z"/>
    <path class="st0" d="M495.1,141.3c0-7.3,0-14.6,0-21.9c0-0.6,0-1.3,0-1.9c0-0.4,0.2-0.6,0.6-0.6c0.1,0,0.2,0,0.3,0c1.5,0,3,0,4.4,0
	c0.2,0,0.4,0,0.5,0.1c0.2,0.1,0.4,0.2,0.4,0.4c0,0.3,0,0.6,0,0.8c0,1.1,0,2.3,0,3.4c0,0.3,0,0.6,0,0.8c0,0.1,0,0.2,0.2,0.2
	c0.1,0,0.2-0.1,0.3-0.1c0.1-0.1,0.2-0.2,0.3-0.3c1-1.1,2-2.2,3.2-3.1c2.3-1.7,4.9-2.7,7.7-3.1c1.8-0.3,3.7-0.3,5.5-0.2
	c3.1,0.2,5.9,1.2,8.4,3.1c1.5,1.2,2.7,2.6,3.6,4.2c1.2,2,1.9,4.2,2.4,6.5c0.4,1.9,0.6,3.8,0.6,5.7v29.8c0,0.9-0.2,0.9-1.4,0.9
	c-1.2,0-2.4,0-3.6,0c-0.3,0-0.6,0-0.8-0.1c-0.2,0-0.4-0.2-0.4-0.4c0-0.3-0.1-0.6-0.1-0.8c0-1.5,0-3,0-4.5c0-7.6,0-15.3,0-22.9
	c0-2.5-0.2-5.1-0.9-7.5c-0.4-1.6-1.1-3.1-2.1-4.5c-1.5-2-3.6-3.1-6-3.5c-1.8-0.3-3.5-0.2-5.2,0.2c-2.4,0.5-4.5,1.6-6.3,3.3
	c-3,2.9-4.6,6.5-5,10.6c-0.1,1.4-0.2,2.9-0.2,4.3c0,8,0,16,0,24.1c0,0.4,0,0.8,0,1.2c0,0.4-0.2,0.6-0.6,0.6c-0.2,0-0.4,0-0.5,0
	c-1.3,0-2.7,0-4,0c-0.1,0-0.1,0-0.2,0c-0.8,0-1-0.2-0.9-1c0-0.6,0.1-1.1,0.1-1.7C495.1,156,495.1,148.6,495.1,141.3"/>
    <path class="st0" d="M260.4,160.1c0-0.7,0-1.4,0-2.1c0-0.2,0-0.5,0.1-0.7c0-0.2,0.2-0.3,0.4-0.2c0.3,0.1,0.5,0.2,0.8,0.3
	c1,0.5,2.1,1.1,3.1,1.6c2,0.9,4,1.6,6.1,2c0.2,0,0.5,0.1,0.7,0.1c1.7,0.1,3.4,0.1,5.2-0.2c0.9-0.2,1.8-0.5,2.6-0.9
	c2.3-1.1,3.4-3,3.7-5.5c0.1-0.5,0-1.1,0-1.6c0-1.5-0.6-2.7-1.6-3.8c-0.9-1-2-1.8-3.2-2.5c-1.7-1-3.5-1.8-5.3-2.6
	c-2.5-1.1-4.9-2.3-7.1-4c-1.3-1-2.4-2-3.3-3.4c-1.1-1.6-1.7-3.3-2-5.2c-0.3-1.9-0.2-3.9,0.4-5.7c0.5-1.8,1.4-3.4,2.6-4.8
	c2.7-2.9,6-4.5,9.8-5.1c4.3-0.6,8.4-0.2,12.4,1.5c0.6,0.3,1.2,0.6,1.8,0.9c0.4,0.2,0.6,0.5,0.6,0.9c0,0.2,0,0.4,0,0.5
	c0,1.3,0,2.6,0,3.9c0,0.3,0,0.6-0.1,0.8c0,0.2-0.2,0.3-0.4,0.2c-0.3-0.1-0.6-0.3-1-0.4c-1.8-0.8-3.6-1.5-5.4-2
	c-1.6-0.4-3.2-0.7-4.9-0.7c-1.5,0-3.1,0.1-4.6,0.7c-1.9,0.8-3.4,2-4.3,4c-0.3,0.6-0.4,1.3-0.5,1.9c-0.2,1.6,0,3.1,0.7,4.5
	c0.4,0.9,1.1,1.7,1.9,2.4c1,0.8,2.2,1.5,3.3,2.1c1.4,0.8,2.9,1.5,4.4,2.2c2.1,1,4.3,2,6.2,3.3c0.7,0.5,1.3,0.9,2,1.4
	c1.9,1.5,3.1,3.5,3.7,5.9c0.4,2,0.5,4,0.1,6.1c-0.8,3.8-3,6.5-6.2,8.5c-2.1,1.3-4.4,1.9-6.9,2.3c-1.8,0.3-3.5,0.3-5.3,0.2
	c-3.4-0.2-6.5-1.1-9.4-2.8c-1.2-0.7-1.2-0.7-1.2-2.1C260.4,161.5,260.4,160.8,260.4,160.1"/>
    <path class="st0" d="M400,123.1c0.2-0.3,0.4-0.6,0.6-0.8c1.1-1.5,2.3-2.8,3.8-3.9c2.2-1.6,4.7-2.4,7.4-2.4c1.7,0,3.3,0.2,4.9,0.7
	c0.2,0.1,0.4,0.1,0.6,0.2c0.4,0.1,0.6,0.4,0.6,0.9c0,0.2,0,0.4,0,0.6c0,1.2,0,2.3,0,3.5c0,0.3,0,0.6,0,0.8c0,0.3-0.2,0.4-0.5,0.4
	c-0.2-0.1-0.5-0.2-0.7-0.2c-1.2-0.4-2.4-0.8-3.7-1c-1.7-0.2-3.2,0.1-4.7,0.8c-1.4,0.7-2.6,1.6-3.6,2.8c-1.7,2-2.8,4.3-3.5,6.9
	c-0.7,2.5-1,5-1.2,7.6c-0.3,7.8-0.1,15.6-0.2,23.4c0,0.5,0,1.1,0,1.6c0,1-0.1,1.1-1.1,1.1c-0.2,0-0.5,0-0.7,0c-1,0-2,0-3,0
	c-0.3,0-0.6,0-0.8,0c-0.3,0-0.4-0.2-0.5-0.5c0-0.1,0-0.3,0-0.4c0-0.3,0-0.6,0-0.8c0-15.2,0-30.4,0-45.6c0-0.4,0-0.8,0-1.3
	c0-0.3,0.2-0.5,0.5-0.5c0.2,0,0.4,0,0.6-0.1c1.3,0,2.6,0,3.9,0c0.2,0,0.4,0,0.5,0c0.4,0.1,0.6,0.2,0.6,0.6c0,0.3,0,0.6,0,0.8
	c0,1.3,0,2.7,0,4C399.8,122.6,399.7,122.8,400,123.1"/>
    <path class="st0" d="M475.7,141.4c0-7.6,0-15.1,0-22.7c0-0.4,0-0.7,0-1.1c0-0.6,0.2-0.8,0.8-0.8c0.1,0,0.2,0,0.3,0
	c1.3,0,2.6,0,3.9,0c0.2,0,0.4,0,0.5,0c0.5,0.1,0.7,0.2,0.7,0.7c0,0.4,0,0.8,0,1.2c0,8.1,0,16.2,0,24.3c0,7,0,14,0,21
	c0,0.4,0,0.7,0,1.1c0,0.8-0.2,0.9-0.9,1c-0.1,0-0.2,0-0.3,0c-1.3,0-2.6,0-3.9,0c-0.1,0-0.1,0-0.2,0c-0.8,0-0.9-0.2-1-1
	c0-0.3,0-0.6,0-0.9C475.7,156.5,475.7,148.9,475.7,141.4"/>
    <path class="st0" d="M483.4,102.4c0.2,2.4-2.2,4.8-4.6,4.6c-2.1,0.2-4.6-1.8-4.6-4.5c0-2.5,2-4.4,4.6-4.4
	C480.8,98,483.5,99.6,483.4,102.4"/>
</svg>
